PathFileType	4	(X/Y/Z)	output.trc
DataRate	CameraRate	NumFrames	NumMarkers	Units	OrigDataRate	OrigDataStartFrame	OrigNumFrames
120	120	10	17	m	120	1	4477
Frame#	Time	Elbow_Midpoint			GH			Wrist_Midpoint			US			RS			C7			EM			EL			T8			SC			AC			AI			TS			AA			IJx			PX00			PC
		X1	Y1	Z1	X2	Y2	Z2	X3	Y3	Z3	X4	Y4	Z4	X5	Y5	Z5	X6	Y6	Z6	X7	Y7	Z7	X8	Y8	Z8	X9	Y9	Z9	X10	Y10	Z10	X11	Y11	Z11	X12	Y12	Z12	X13	Y13	Z13	X14	Y14	Z14	X15	Y15	Z15	X16	Y16	Z16	X17	Y17	Z17
0	0.000000	0.338551	0.912626	-0.477472	0.311650	1.177171	-0.482460	0.385417	0.704105	-0.562006	0.402397	0.703241	-0.546883	0.368438	0.704969	-0.577129	0.146709	1.301454	-0.478626	0.316683	0.910276	-0.454800	0.367657	0.901115	-0.484994	0.133748	1.077436	-0.392398	0.157628	1.201752	-0.536604	0.274310	1.226342	-0.497761	0.224987	1.096636	-0.372539	0.200620	1.246141	-0.426141	0.324347	1.215569	-0.489589	0.144616	1.204227	-0.540486	0.134102	1.014679	-0.577113	0.268417	1.186772	-0.512814
1	0.008333	0.338442	0.912666	-0.477487	0.311636	1.177229	-0.482428	0.385415	0.704133	-0.561931	0.402361	0.703262	-0.546771	0.368470	0.705005	-0.577092	0.146633	1.301498	-0.478601	0.316621	0.910335	-0.454747	0.367601	0.901165	-0.484928	0.133678	1.077485	-0.392360	0.157574	1.201793	-0.536569	0.274230	1.226380	-0.497678	0.224994	1.096799	-0.372294	0.200603	1.246257	-0.426016	0.324273	1.215608	-0.489539	0.144562	1.204267	-0.540455	0.134075	1.014715	-0.577070	0.268320	1.186797	-0.512690
2	0.016667	0.338357	0.912717	-0.477514	0.311596	1.177282	-0.482395	0.385385	0.704157	-0.561859	0.402304	0.703279	-0.546670	0.368466	0.705034	-0.577048	0.146537	1.301544	-0.478575	0.316550	0.910389	-0.454700	0.367537	0.901212	-0.484866	0.133607	1.077532	-0.392327	0.157511	1.201838	-0.536536	0.274133	1.226415	-0.497566	0.224974	1.096982	-0.371999	0.200577	1.246390	-0.425859	0.324180	1.215637	-0.489461	0.144500	1.204309	-0.540425	0.134058	1.014753	-0.577034	0.268198	1.186817	-0.512530
3	0.025000	0.338269	0.912765	-0.477540	0.311534	1.177329	-0.482362	0.385332	0.704176	-0.561797	0.402232	0.703295	-0.546587	0.368432	0.705056	-0.577007	0.146416	1.301591	-0.478550	0.316471	0.910437	-0.454658	0.367466	0.901257	-0.484810	0.133540	1.077577	-0.392298	0.157438	1.201887	-0.536506	0.274021	1.226446	-0.497426	0.224927	1.097180	-0.371660	0.200540	1.246534	-0.425673	0.324071	1.215657	-0.489354	0.144427	1.204354	-0.540397	0.134059	1.014794	-0.577003	0.268056	1.186833	-0.512337
4	0.033333	0.338141	0.912788	-0.477550	0.311453	1.177372	-0.482324	0.385266	0.704194	-0.561757	0.402152	0.703312	-0.546530	0.368380	0.705075	-0.576983	0.146270	1.301641	-0.478527	0.316385	0.910479	-0.454623	0.367387	0.901301	-0.484763	0.133482	1.077623	-0.392273	0.157357	1.201941	-0.536477	0.273902	1.226472	-0.497266	0.224857	1.097378	-0.371304	0.200489	1.246678	-0.425476	0.323954	1.215671	-0.489223	0.144346	1.204401	-0.540372	0.134082	1.014835	-0.576976	0.267907	1.186843	-0.512125
5	0.041667	0.337946	0.912776	-0.477527	0.311358	1.177411	-0.482282	0.385194	0.704214	-0.561748	0.402068	0.703333	-0.546508	0.368321	0.705095	-0.576988	0.146101	1.301690	-0.478504	0.316295	0.910518	-0.454592	0.367302	0.901342	-0.484725	0.133435	1.077665	-0.392250	0.157270	1.201997	-0.536449	0.273789	1.226491	-0.497104	0.224774	1.097549	-0.370975	0.200423	1.246798	-0.425294	0.323842	1.215683	-0.489078	0.144258	1.204449	-0.540348	0.134127	1.014875	-0.576953	0.267773	1.186848	-0.511916
6	0.050000	0.337689	0.912727	-0.477466	0.311251	1.177448	-0.482231	0.385118	0.704243	-0.561776	0.401981	0.703363	-0.546524	0.368256	0.705124	-0.577028	0.145922	1.301735	-0.478478	0.316203	0.910552	-0.454565	0.367212	0.901382	-0.484697	0.133393	1.077699	-0.392232	0.157180	1.202051	-0.536422	0.273695	1.226501	-0.496956	0.224692	1.097666	-0.370714	0.200339	1.246870	-0.425155	0.323749	1.215698	-0.488927	0.144168	1.204493	-0.540325	0.134186	1.014913	-0.576935	0.267676	1.186846	-0.511735
7	0.058333	0.337419	0.912664	-0.477364	0.311135	1.177482	-0.482168	0.385033	0.704288	-0.561839	0.401885	0.703404	-0.546577	0.368180	0.705173	-0.577102	0.145745	1.301771	-0.478449	0.316114	0.910583	-0.454538	0.367120	0.901421	-0.484677	0.133346	1.077722	-0.392220	0.157092	1.202098	-0.536395	0.273631	1.226497	-0.496833	0.224621	1.097716	-0.370538	0.200237	1.246881	-0.425074	0.323685	1.215717	-0.488776	0.144080	1.204531	-0.540302	0.134243	1.014946	-0.576926	0.267633	1.186832	-0.511591
8	0.066667	0.337212	0.912620	-0.477236	0.311017	1.177516	-0.482085	0.384928	0.704358	-0.561932	0.401772	0.703459	-0.546661	0.368084	0.705257	-0.577203	0.145580	1.301799	-0.478417	0.316023	0.910612	-0.454507	0.367021	0.901460	-0.484663	0.133287	1.077735	-0.392211	0.157009	1.202137	-0.536367	0.273599	1.226478	-0.496736	0.224569	1.097699	-0.370447	0.200120	1.246827	-0.425054	0.323654	1.215740	-0.488628	0.143996	1.204563	-0.540279	0.134289	1.014975	-0.576922	0.267646	1.186803	-0.511488
9	0.075000	0.337119	0.912622	-0.477102	0.310912	1.177555	-0.481977	0.384800	0.704452	-0.562044	0.401638	0.703528	-0.546767	0.367963	0.705376	-0.577322	0.145429	1.301819	-0.478383	0.315922	0.910644	-0.454470	0.366904	0.901498	-0.484654	0.133211	1.077740	-0.392204	0.156930	1.202169	-0.536339	0.273594	1.226448	-0.496666	0.224530	1.097623	-0.370438	0.199990	1.246719	-0.425091	0.323650	1.215767	-0.488486	0.143917	1.204588	-0.540255	0.134317	1.014999	-0.576921	0.267707	1.186765	-0.511423
